<svg width="44" height="44" viewBox="0 0 44 44" fill="none" xmlns="http://www.w3.org/2000/svg">
<g id="coding-file">
<path id="Vector" d="M16.7568 29.0034L12.2047 24.4671C11.813 24.0768 11.8125 23.4427 12.2035 23.0517L16.7568 18.4984" stroke="#152F5B" stroke-width="2.2" stroke-miterlimit="10"/>
<path id="Vector_2" d="M27.2432 29.0034L31.7953 24.4671C32.1869 24.0768 32.1875 23.4427 31.7965 23.0517L27.2432 18.4984" stroke="#152F5B" stroke-width="2.2" stroke-miterlimit="10"/>
<path id="Vector_3" d="M23.7411 18.4984L20.2578 29.0034" stroke="#152F5B" stroke-width="2.2" stroke-miterlimit="10"/>
<path id="Vector_4" d="M37.4557 11.2021C37.6433 11.3896 37.7486 11.644 37.7486 11.9092V40.25C37.7486 40.8023 37.3009 41.25 36.7486 41.25H7.25195C6.69967 41.25 6.25195 40.8023 6.25195 40.25V3.75C6.25195 3.19772 6.69967 2.75 7.25195 2.75H28.5894C28.8546 2.75 29.109 2.85536 29.2965 3.04289L37.4557 11.2021Z" stroke="#152F5B" stroke-width="2.2" stroke-miterlimit="10"/>
<path id="Vector_5" d="M37.4553 11.2021C37.6428 11.3896 37.7482 11.644 37.7482 11.9092V12.255C37.7482 12.8073 37.3004 13.255 36.7482 13.255H28.2432C27.6909 13.255 27.2432 12.8073 27.2432 12.255V3.75C27.2432 3.19771 27.6909 2.75 28.2432 2.75H28.589C28.8542 2.75 29.1085 2.85536 29.2961 3.04289L37.4553 11.2021Z" stroke="#152F5B" stroke-width="2.2" stroke-miterlimit="10"/>
</g>
</svg>
