<svg width="118" height="50" viewBox="0 0 118 50" fill="none" xmlns="http://www.w3.org/2000/svg">
<g clip-path="url(#clip0_305_49477)">
<path d="M59.2669 31.6622C58.174 31.6622 57.1891 31.4109 56.3121 30.9082C55.4486 30.3918 54.7672 29.6989 54.268 28.8293C53.7688 27.9461 53.5192 26.9542 53.5192 25.8536C53.5192 24.753 53.7688 23.768 54.268 22.8984C54.7672 22.0287 55.4486 21.3426 56.3121 20.8398C57.1891 20.3371 58.174 20.0858 59.2669 20.0858C60.0495 20.0858 60.7781 20.2284 61.4527 20.5137C62.1273 20.7855 62.7075 21.1659 63.1932 21.6551C63.6924 22.1306 64.05 22.7013 64.2659 23.3671L61.9384 24.3861C61.736 23.8291 61.392 23.3807 60.9062 23.041C60.434 22.7013 59.8876 22.5315 59.2669 22.5315C58.6867 22.5315 58.1673 22.6741 57.7086 22.9595C57.2633 23.2448 56.9125 23.6389 56.6562 24.1416C56.3998 24.6443 56.2716 25.2218 56.2716 25.874C56.2716 26.5262 56.3998 27.1037 56.6562 27.6064C56.9125 28.1091 57.2633 28.5032 57.7086 28.7885C58.1673 29.0738 58.6867 29.2165 59.2669 29.2165C59.9011 29.2165 60.4543 29.0467 60.9265 28.707C61.3987 28.3673 61.736 27.9121 61.9384 27.3414L64.2659 28.4013C64.05 29.0263 63.6991 29.5902 63.2134 30.0929C62.7277 30.5821 62.1475 30.9693 61.4729 31.2546C60.7983 31.5263 60.0629 31.6622 59.2669 31.6622Z" fill="white"/>
<path d="M71.4998 31.6622C70.3663 31.6622 69.3745 31.404 68.5247 30.8877C67.6748 30.3713 67.0139 29.6716 66.5413 28.7884C66.0693 27.9052 65.8333 26.9269 65.8333 25.8536C65.8333 24.7394 66.0693 23.7543 66.5413 22.8983C67.0274 22.0287 67.6813 21.3425 68.5047 20.8398C69.341 20.3371 70.2721 20.0857 71.2974 20.0857C72.1608 20.0857 72.9165 20.2284 73.5645 20.5137C74.2254 20.799 74.7851 21.193 75.2442 21.6958C75.7027 22.1986 76.0535 22.776 76.2966 23.4282C76.539 24.0668 76.6609 24.7598 76.6609 25.5071C76.6609 25.6973 76.6473 25.8943 76.6203 26.0981C76.6067 26.3019 76.5732 26.4786 76.519 26.628H68.0192V24.5899H75.0211L73.7663 25.5478C73.8882 24.9228 73.854 24.3657 73.6657 23.8766C73.4904 23.3874 73.1931 23.0002 72.7746 22.7148C72.3703 22.4295 71.8777 22.2869 71.2974 22.2869C70.7441 22.2869 70.2521 22.4295 69.8201 22.7148C69.3881 22.9866 69.0579 23.3942 68.8284 23.9377C68.6124 24.4676 68.5318 25.113 68.5853 25.8739C68.5318 26.5533 68.6195 27.158 68.8484 27.6878C69.0915 28.2042 69.4422 28.605 69.9013 28.8904C70.3733 29.1757 70.9131 29.3184 71.5205 29.3184C72.1272 29.3184 72.6399 29.1893 73.0583 28.9311C73.4897 28.673 73.8276 28.3265 74.07 27.8917L76.2153 28.9515C75.9993 29.4814 75.6621 29.9502 75.2036 30.3578C74.7445 30.7654 74.1984 31.0847 73.5645 31.3157C72.9436 31.5467 72.2555 31.6622 71.4998 31.6622Z" fill="white"/>
<path d="M78.6689 31.4176V20.3302H81.1579V22.511L80.9554 22.1238C81.2121 21.458 81.6306 20.9553 82.2102 20.6156C82.8041 20.2623 83.4921 20.0857 84.2749 20.0857C85.0842 20.0857 85.7992 20.2623 86.4202 20.6156C87.054 20.9689 87.5467 21.4648 87.8975 22.1034C88.2482 22.7284 88.4236 23.4554 88.4236 24.2842V31.4176H85.7722V24.916C85.7722 24.4269 85.678 24.0056 85.4891 23.6524C85.3002 23.2991 85.0371 23.0274 84.6998 22.8371C84.3762 22.6334 83.9912 22.5314 83.5463 22.5314C83.1143 22.5314 82.73 22.6334 82.3927 22.8371C82.0555 23.0274 81.7924 23.2991 81.6035 23.6524C81.4145 24.0056 81.3198 24.4269 81.3198 24.916V31.4176H78.6689Z" fill="white"/>
<path d="M95.6845 31.54C94.4433 31.54 93.4786 31.2003 92.7906 30.521C92.1162 29.828 91.7783 28.8565 91.7783 27.6065V22.715H89.8761V20.3304H90.0786C90.6183 20.3304 91.0368 20.1877 91.3334 19.9024C91.63 19.6171 91.7783 19.2026 91.7783 18.6591V17.8031H94.4297V20.3304H96.9593V22.715H94.4297V27.4638C94.4297 27.8306 94.4904 28.1432 94.6122 28.4013C94.747 28.6595 94.9495 28.8565 95.219 28.9924C95.5027 29.1282 95.8599 29.1962 96.2919 29.1962C96.3861 29.1962 96.4944 29.1894 96.6156 29.1758C96.7504 29.1622 96.8787 29.1486 96.9999 29.135V31.4177C96.811 31.4449 96.5956 31.4721 96.3526 31.4993C96.1095 31.5264 95.887 31.54 95.6845 31.54Z" fill="white"/>
<path d="M111.486 31.4177V20.3304H113.975V22.7966L113.773 22.4297C114.029 21.6009 114.427 21.0234 114.967 20.6973C115.52 20.3712 116.181 20.2081 116.95 20.2081H117.598V22.5724H116.647C115.891 22.5724 115.284 22.8101 114.825 23.2857C114.367 23.7477 114.137 24.3999 114.137 25.2423V31.4177H111.486Z" fill="white"/>
<path d="M104.644 31.6622C103.511 31.6622 102.519 31.404 101.668 30.8877C100.819 30.3713 100.158 29.6716 99.6857 28.7884C99.2131 27.9052 98.9771 26.9269 98.9771 25.8536C98.9771 24.7394 99.2131 23.7543 99.6857 22.8983C100.171 22.0287 100.826 21.3425 101.648 20.8398C102.485 20.3371 103.416 20.0857 104.441 20.0857C105.305 20.0857 106.06 20.2284 106.708 20.5137C107.369 20.799 107.929 21.193 108.388 21.6958C108.846 22.1986 109.197 22.776 109.44 23.4282C109.683 24.0668 109.805 24.7598 109.805 25.5071C109.805 25.6973 109.791 25.8943 109.764 26.0981C109.751 26.3019 109.717 26.4786 109.663 26.628H101.163V24.5899H108.166L106.911 25.5478C107.032 24.9228 106.998 24.3657 106.81 23.8766C106.634 23.3874 106.337 23.0002 105.919 22.7148C105.514 22.4295 105.021 22.2869 104.441 22.2869C103.889 22.2869 103.396 22.4295 102.964 22.7148C102.533 22.9866 102.202 23.3942 101.972 23.9377C101.756 24.4676 101.676 25.113 101.73 25.8739C101.676 26.5533 101.763 27.158 101.993 27.6878C102.235 28.2042 102.586 28.605 103.045 28.8904C103.517 29.1757 104.057 29.3184 104.664 29.3184C105.271 29.3184 105.784 29.1893 106.202 28.9311C106.634 28.673 106.971 28.3265 107.214 27.8917L109.36 28.9515C109.144 29.4814 108.807 29.9502 108.347 30.3578C107.889 30.7654 107.342 31.0847 106.708 31.3157C106.087 31.5467 105.399 31.6622 104.644 31.6622Z" fill="white"/>
<path d="M24.8251 50C38.5357 50 49.6503 38.8071 49.6503 25C49.6503 11.1929 38.5357 0 24.8251 0C11.1146 0 0 11.1929 0 25C0 38.8071 11.1146 50 24.8251 50Z" fill="white"/>
<path d="M8.38098 31.4177V16.2338H11.1334V28.9719V31.4177H8.38098Z" fill="#152F5B"/>
<path d="M12.5463 31.4177V20.3303H15.1975V31.4177H12.5463Z" fill="#152F5B"/>
<path d="M17.6469 31.4176V20.3303H20.1362V22.5111L19.9338 22.1238C20.1902 21.458 20.6085 20.9553 21.1886 20.6156C21.7823 20.2624 22.4704 20.0857 23.2529 20.0857C24.0625 20.0857 24.7776 20.2624 25.3982 20.6156C26.0324 20.9689 26.5248 21.4648 26.8756 22.1034C27.2265 22.7285 27.4018 23.4554 27.4018 24.2842V31.4176H24.7506V24.916C24.7506 24.4269 24.6562 24.0057 24.4673 23.6524C24.2784 23.2991 24.0152 23.0274 23.6779 22.8372C23.3541 22.6334 22.9696 22.5315 22.5244 22.5315C22.0926 22.5315 21.7081 22.6334 21.3708 22.8372C21.0335 23.0274 20.7704 23.2991 20.5814 23.6524C20.3926 24.0057 20.2981 24.4269 20.2981 24.916V31.4176H17.6469Z" fill="#152F5B"/>
<path d="M38.1224 35.4939V29.2776L38.5474 29.8075C38.1696 30.4054 37.6434 30.8673 36.9688 31.1934C36.2942 31.506 35.5588 31.6622 34.7627 31.6622C33.6969 31.6622 32.7457 31.4108 31.9091 30.9081C31.0726 30.3918 30.4114 29.6921 29.9258 28.8088C29.44 27.9256 29.1971 26.9474 29.1971 25.8739C29.1971 24.787 29.44 23.8087 29.9258 22.9391C30.4114 22.0695 31.0726 21.3765 31.9091 20.8602C32.7591 20.3439 33.7036 20.0857 34.7426 20.0857C35.5791 20.0857 36.3211 20.2556 36.9688 20.5952C37.6299 20.9213 38.1493 21.3833 38.5271 21.9811L38.2641 22.5315V20.3303H40.7737V35.4939H38.1224ZM35.0461 29.2165C35.6533 29.2165 36.1862 29.0738 36.6449 28.7885C37.1037 28.5031 37.4613 28.1091 37.7176 27.6063C37.9874 27.1036 38.1224 26.5261 38.1224 25.8739C38.1224 25.2354 37.9874 24.6647 37.7176 24.1619C37.4613 23.6456 37.1037 23.2448 36.6449 22.9595C36.1862 22.6741 35.6533 22.5315 35.0461 22.5315C34.4525 22.5315 33.9195 22.6809 33.4473 22.9798C32.975 23.2652 32.604 23.6592 32.3341 24.1619C32.0778 24.6511 31.9496 25.2217 31.9496 25.8739C31.9496 26.5261 32.0778 27.1036 32.3341 27.6063C32.604 28.1091 32.975 28.5031 33.4473 28.7885C33.9195 29.0738 34.4525 29.2165 35.0461 29.2165Z" fill="#152F5B"/>
<path d="M44.4932 31.1689C45.2055 31.1689 45.7828 30.5874 45.7828 29.8702C45.7828 29.1529 45.2055 28.5715 44.4932 28.5715C43.781 28.5715 43.2036 29.1529 43.2036 29.8702C43.2036 30.5874 43.781 31.1689 44.4932 31.1689Z" fill="#F46602"/>
<path d="M14.1857 18.8312C14.898 18.8312 15.4754 18.2497 15.4754 17.5325C15.4754 16.8152 14.898 16.2338 14.1857 16.2338C13.4735 16.2338 12.8961 16.8152 12.8961 17.5325C12.8961 18.2497 13.4735 18.8312 14.1857 18.8312Z" fill="#F46602"/>
</g>
<defs>
<clipPath id="clip0_305_49477">
<rect width="118" height="50" fill="white"/>
</clipPath>
</defs>
</svg>
