<svg width="44" height="44" viewBox="0 0 44 44" fill="none" xmlns="http://www.w3.org/2000/svg">
<path d="M39.5268 2.75H4.51009C3.49757 2.75 2.67676 3.57081 2.67676 4.58333V39.6C2.67676 40.6125 3.49757 41.4333 4.51009 41.4333H39.5268C40.5393 41.4333 41.3601 40.6125 41.3601 39.6V4.58333C41.3601 3.57081 40.5393 2.75 39.5268 2.75Z" stroke="#152F5B" stroke-width="2.2" stroke-miterlimit="10"/>
<path d="M41.3601 12.2917C41.3601 12.844 40.9124 13.2917 40.3601 13.2917H29.8468H26.3451H3.67676C3.12447 13.2917 2.67676 12.844 2.67676 12.2917V3.75C2.67676 3.19772 3.12447 2.75 3.67676 2.75H40.3601C40.9124 2.75 41.3601 3.19772 41.3601 3.75V12.2917Z" stroke="#152F5B" stroke-width="2.2" stroke-miterlimit="10"/>
<path d="M7.9563 8.03H11.458" stroke="#152F5B" stroke-width="3.66667" stroke-miterlimit="10"/>
<path d="M14.9783 8.03H18.4983" stroke="#152F5B" stroke-width="3.66667" stroke-miterlimit="10"/>
<path d="M22.0183 8.03H25.5383" stroke="#152F5B" stroke-width="3.66667" stroke-miterlimit="10"/>
</svg>
